<?xml version="1.0" standalone="no"?>
<!DOCTYPE svg PUBLIC "-//W3C//DTD SVG 20010904//EN"
 "http://www.w3.org/TR/2001/REC-SVG-20010904/DTD/svg10.dtd">
<svg version="1.0" xmlns="http://www.w3.org/2000/svg"
 width="1280.000000pt" height="1280.000000pt" viewBox="0 0 1280.000000 1280.000000"
 preserveAspectRatio="xMidYMid meet">
<metadata>
Created by potrace 1.14, written by Peter Selinger 2001-2017
</metadata>
<g transform="translate(0.000000,1280.000000) scale(0.100000,-0.100000)"
fill="#000000" stroke="none">
<path d="M6088 12796 c-1 -2 -48 -6 -103 -10 -127 -8 -197 -14 -260 -21 -27
-3 -63 -8 -80 -9 -37 -4 -133 -17 -154 -21 -9 -1 -41 -6 -71 -10 -30 -4 -64
-9 -75 -11 -11 -2 -47 -9 -80 -15 -108 -19 -119 -21 -250 -50 -71 -16 -141
-32 -155 -35 -128 -26 -477 -134 -685 -211 -268 -99 -608 -254 -825 -375 -25
-14 -72 -40 -105 -58 -86 -48 -362 -217 -375 -230 -3 -3 -39 -27 -80 -55 -155
-104 -471 -348 -618 -479 -92 -81 -198 -183 -322 -307 -156 -157 -195 -199
-330 -359 -30 -36 -58 -67 -61 -70 -23 -19 -290 -376 -357 -476 -81 -123 -133
-205 -180 -284 -31 -52 -59 -97 -62 -100 -3 -3 -11 -16 -17 -30 -7 -14 -37
-70 -68 -125 -117 -211 -345 -706 -345 -748 0 -8 -3 -17 -7 -21 -4 -3 -13 -23
-20 -44 -26 -68 -144 -427 -148 -446 -3 -10 -9 -33 -15 -51 -10 -30 -14 -48
-26 -104 -3 -14 -7 -28 -10 -33 -3 -4 -7 -18 -9 -30 -3 -13 -16 -70 -29 -128
-14 -58 -27 -116 -30 -130 -3 -14 -14 -70 -24 -125 -11 -55 -23 -120 -26 -145
-3 -25 -8 -54 -10 -65 -15 -85 -16 -90 -31 -217 -3 -27 -7 -67 -10 -90 -22
-185 -28 -336 -29 -663 0 -283 5 -462 18 -575 3 -19 7 -66 10 -105 4 -38 8
-81 10 -95 2 -14 7 -47 10 -75 3 -27 8 -61 10 -75 9 -51 18 -106 22 -140 4
-36 16 -95 39 -210 8 -36 17 -81 20 -100 20 -115 162 -627 195 -705 5 -11 23
-60 40 -110 17 -49 37 -103 44 -120 8 -16 26 -61 41 -100 15 -38 38 -94 51
-123 13 -29 24 -54 24 -57 0 -7 72 -161 135 -285 64 -130 186 -352 235 -430 5
-8 21 -35 36 -60 102 -169 391 -576 489 -689 13 -14 55 -64 95 -111 260 -306
629 -661 910 -875 36 -28 67 -52 70 -55 37 -40 411 -294 590 -402 163 -98 380
-218 440 -244 8 -4 61 -29 117 -56 237 -113 447 -196 738 -293 161 -54 408
-126 480 -141 24 -5 59 -12 83 -18 22 -6 206 -45 241 -51 163 -30 149 -28 236
-39 28 -4 59 -9 70 -11 32 -6 117 -17 155 -20 19 -1 55 -5 80 -8 50 -7 133
-14 290 -24 210 -13 758 -6 900 12 19 2 67 6 105 9 39 3 87 8 106 11 20 3 51
7 70 9 39 5 124 16 154 21 11 1 36 6 55 9 19 3 46 8 60 10 14 2 54 9 90 16 36
7 76 14 90 17 14 2 54 11 90 19 36 9 74 17 85 20 82 16 299 72 385 99 97 31
326 106 340 112 8 3 20 7 27 9 20 4 296 115 347 140 28 13 54 24 58 24 14 0
369 176 490 243 151 84 162 91 169 100 3 5 8 8 10 6 4 -2 54 27 129 76 156
101 247 160 255 167 6 5 46 34 90 65 44 32 114 83 155 115 41 32 80 61 85 65
14 11 183 151 219 183 186 160 449 421 591 585 28 32 55 63 60 69 9 9 85 100
120 143 6 7 16 20 24 29 8 9 30 37 49 63 20 25 56 73 82 106 211 275 449 663
622 1015 78 160 178 381 178 395 0 3 9 24 20 48 38 83 143 384 190 547 12 41
26 86 31 100 10 30 59 225 65 260 3 14 7 32 10 40 3 8 16 69 29 135 31 155 35
176 39 200 2 11 6 40 10 65 4 25 9 57 12 73 2 15 6 39 9 55 2 15 7 50 10 77 3
28 10 86 15 130 32 270 45 799 27 1070 -14 198 -25 328 -31 365 -3 14 -10 68
-16 120 -14 112 -20 151 -25 159 -2 4 -6 33 -10 65 -3 33 -8 62 -10 65 -1 3
-6 22 -9 41 -7 45 -12 70 -30 150 -8 36 -21 97 -30 135 -8 39 -22 95 -30 125
-8 30 -24 91 -36 135 -21 79 -110 360 -129 406 -5 13 -26 69 -46 124 -42 113
-41 110 -121 295 -105 245 -351 713 -430 817 -13 17 -24 34 -24 37 0 9 -172
268 -193 291 -10 11 -26 32 -35 48 -9 15 -20 27 -24 27 -4 0 -8 4 -8 9 0 9
-60 92 -112 156 -257 317 -416 490 -665 725 -282 266 -604 516 -928 722 -49
32 -95 61 -101 65 -11 9 -37 24 -103 61 -25 14 -62 35 -81 47 -115 71 -488
258 -630 315 -25 10 -63 26 -85 36 -22 10 -42 18 -45 19 -11 3 -46 17 -65 26
-61 27 -465 165 -513 175 -13 2 -42 11 -65 19 -34 11 -243 66 -307 80 -118 27
-168 37 -185 40 -11 1 -20 4 -20 5 0 1 -11 3 -25 5 -14 1 -50 7 -80 13 -30 6
-75 14 -100 17 -24 4 -47 8 -50 10 -3 2 -32 6 -65 10 -33 3 -73 8 -90 10 -16
3 -54 7 -83 10 -29 4 -62 8 -73 10 -11 2 -62 7 -114 10 -51 4 -106 9 -122 11
-31 5 -749 14 -755 10z"/>
</g>
</svg>
